<mxfile host="app.diagrams.net" modified="2020-12-13T04:50:37.835Z" agent="5.0 (Windows NT 10.0; Win64; x64) AppleWebKit/537.36 (KHTML, like Gecko) Chrome/87.0.4280.88 Safari/537.36" etag="MkR4t9cnL3cLsP1-gYzP" version="14.0.1" type="github" pages="4">
  <diagram id="lf53xK3CYcItw04vwrKp" name="车场">
    <mxGraphModel dx="1102" dy="581" grid="1" gridSize="10" guides="1" tooltips="1" connect="1" arrows="1" fold="1" page="1" pageScale="1" pageWidth="827" pageHeight="1169" math="0" shadow="0">
      <root>
        <mxCell id="0" />
        <mxCell id="1" parent="0" />
        <mxCell id="m-Kj6B7PE4nzNGE_S6hV-1" value="" style="aspect=fixed;html=1;points=[];align=center;image;fontSize=12;image=img/lib/azure2/iot/Device_Provisioning_Services.svg;" parent="1" vertex="1">
          <mxGeometry x="310" y="220" width="64" height="66" as="geometry" />
        </mxCell>
        <mxCell id="m-Kj6B7PE4nzNGE_S6hV-2" value="腾达云&lt;br&gt;MQTT Broker" style="text;html=1;strokeColor=none;fillColor=none;align=center;verticalAlign=middle;whiteSpace=wrap;rounded=0;" parent="1" vertex="1">
          <mxGeometry x="282" y="150" width="120" height="20" as="geometry" />
        </mxCell>
        <mxCell id="m-Kj6B7PE4nzNGE_S6hV-3" value="" style="aspect=fixed;html=1;points=[];align=center;image;fontSize=12;image=img/lib/azure2/iot/IoT_Central_Applications.svg;" parent="1" vertex="1">
          <mxGeometry x="530" y="220" width="60" height="69" as="geometry" />
        </mxCell>
        <mxCell id="m-Kj6B7PE4nzNGE_S6hV-4" value="智慧社区&lt;br&gt;MQTT Client" style="text;html=1;strokeColor=none;fillColor=none;align=center;verticalAlign=middle;whiteSpace=wrap;rounded=0;" parent="1" vertex="1">
          <mxGeometry x="490" y="150" width="120" height="20" as="geometry" />
        </mxCell>
        <mxCell id="m-Kj6B7PE4nzNGE_S6hV-6" value="车场&lt;br&gt;MQTT Client" style="text;html=1;strokeColor=none;fillColor=none;align=center;verticalAlign=middle;whiteSpace=wrap;rounded=0;" parent="1" vertex="1">
          <mxGeometry x="104" y="150" width="120" height="20" as="geometry" />
        </mxCell>
        <mxCell id="m-Kj6B7PE4nzNGE_S6hV-7" value="超级黑盒1" style="text;html=1;strokeColor=none;fillColor=none;align=center;verticalAlign=middle;whiteSpace=wrap;rounded=0;" parent="1" vertex="1">
          <mxGeometry x="120" y="289" width="120" height="20" as="geometry" />
        </mxCell>
        <mxCell id="m-Kj6B7PE4nzNGE_S6hV-8" value="" style="shape=cube;whiteSpace=wrap;html=1;boundedLbl=1;backgroundOutline=1;darkOpacity=0.05;darkOpacity2=0.1;fillColor=#4D4D4D;" parent="1" vertex="1">
          <mxGeometry x="120" y="247" width="84" height="39" as="geometry" />
        </mxCell>
        <mxCell id="m-Kj6B7PE4nzNGE_S6hV-9" value="" style="shape=cube;whiteSpace=wrap;html=1;boundedLbl=1;backgroundOutline=1;darkOpacity=0.05;darkOpacity2=0.1;fillColor=#4D4D4D;" parent="1" vertex="1">
          <mxGeometry x="160" y="340" width="84" height="39" as="geometry" />
        </mxCell>
        <mxCell id="m-Kj6B7PE4nzNGE_S6hV-10" value="" style="shape=cube;whiteSpace=wrap;html=1;boundedLbl=1;backgroundOutline=1;darkOpacity=0.05;darkOpacity2=0.1;fillColor=#4D4D4D;" parent="1" vertex="1">
          <mxGeometry x="270" y="400" width="84" height="39" as="geometry" />
        </mxCell>
        <mxCell id="m-Kj6B7PE4nzNGE_S6hV-11" value="超级黑盒2" style="text;html=1;strokeColor=none;fillColor=none;align=center;verticalAlign=middle;whiteSpace=wrap;rounded=0;" parent="1" vertex="1">
          <mxGeometry x="150" y="379" width="120" height="20" as="geometry" />
        </mxCell>
        <mxCell id="m-Kj6B7PE4nzNGE_S6hV-12" value="超级黑盒n" style="text;html=1;strokeColor=none;fillColor=none;align=center;verticalAlign=middle;whiteSpace=wrap;rounded=0;" parent="1" vertex="1">
          <mxGeometry x="260" y="439" width="120" height="20" as="geometry" />
        </mxCell>
        <mxCell id="m-Kj6B7PE4nzNGE_S6hV-13" value="" style="endArrow=classic;html=1;exitX=0;exitY=0;exitDx=84;exitDy=20;exitPerimeter=0;" parent="1" source="m-Kj6B7PE4nzNGE_S6hV-8" edge="1">
          <mxGeometry width="50" height="50" relative="1" as="geometry">
            <mxPoint x="206" y="319.5" as="sourcePoint" />
            <mxPoint x="308" y="266" as="targetPoint" />
          </mxGeometry>
        </mxCell>
        <mxCell id="m-Kj6B7PE4nzNGE_S6hV-14" value="" style="endArrow=classic;html=1;exitX=0;exitY=0;exitDx=84;exitDy=20;exitPerimeter=0;" parent="1" source="m-Kj6B7PE4nzNGE_S6hV-9" target="m-Kj6B7PE4nzNGE_S6hV-1" edge="1">
          <mxGeometry width="50" height="50" relative="1" as="geometry">
            <mxPoint x="250" y="370" as="sourcePoint" />
            <mxPoint x="300" y="320" as="targetPoint" />
          </mxGeometry>
        </mxCell>
        <mxCell id="m-Kj6B7PE4nzNGE_S6hV-15" value="" style="endArrow=classic;html=1;exitX=0;exitY=0;exitDx=64;exitDy=0;exitPerimeter=0;" parent="1" source="m-Kj6B7PE4nzNGE_S6hV-10" edge="1">
          <mxGeometry width="50" height="50" relative="1" as="geometry">
            <mxPoint x="320" y="410" as="sourcePoint" />
            <mxPoint x="330" y="290" as="targetPoint" />
          </mxGeometry>
        </mxCell>
        <mxCell id="m-Kj6B7PE4nzNGE_S6hV-16" value="" style="endArrow=classic;html=1;" parent="1" edge="1">
          <mxGeometry width="50" height="50" relative="1" as="geometry">
            <mxPoint x="520" y="240" as="sourcePoint" />
            <mxPoint x="370" y="240" as="targetPoint" />
          </mxGeometry>
        </mxCell>
        <mxCell id="m-Kj6B7PE4nzNGE_S6hV-17" value="" style="endArrow=classic;html=1;exitX=0.938;exitY=0.758;exitDx=0;exitDy=0;exitPerimeter=0;" parent="1" source="m-Kj6B7PE4nzNGE_S6hV-1" edge="1">
          <mxGeometry width="50" height="50" relative="1" as="geometry">
            <mxPoint x="380" y="310" as="sourcePoint" />
            <mxPoint x="520" y="270" as="targetPoint" />
          </mxGeometry>
        </mxCell>
        <mxCell id="m-Kj6B7PE4nzNGE_S6hV-18" value="1. 车位组管理&lt;span style=&quot;background-color: rgb(82 , 80 , 58) ; color: rgb(255 , 160 , 160) ; font-family: &amp;#34;jetbrains mono&amp;#34; , monospace ; font-size: 9pt&quot;&gt;manage.cargroups&lt;/span&gt;" style="text;html=1;strokeColor=none;fillColor=none;align=center;verticalAlign=middle;whiteSpace=wrap;rounded=0;" parent="1" vertex="1">
          <mxGeometry x="580" y="320" width="220" height="20" as="geometry" />
        </mxCell>
        <mxCell id="TwNn3Y7DwZ_KB6LsfTcg-1" value="超级黑盒订阅和发送数据的topic：TDZN/314P1004" style="text;html=1;strokeColor=none;fillColor=none;align=left;verticalAlign=middle;whiteSpace=wrap;rounded=0;dashed=1;" parent="1" vertex="1">
          <mxGeometry x="54" y="530" width="320" height="20" as="geometry" />
        </mxCell>
        <mxCell id="TwNn3Y7DwZ_KB6LsfTcg-2" value="社区应用订阅和发送数据的topic：TDZN/314P1004" style="text;html=1;strokeColor=none;fillColor=none;align=left;verticalAlign=middle;whiteSpace=wrap;rounded=0;dashed=1;" parent="1" vertex="1">
          <mxGeometry x="510" y="530" width="320" height="20" as="geometry" />
        </mxCell>
      </root>
    </mxGraphModel>
  </diagram>
  <diagram id="yy-SFTuNOoilCG56Jn97" name="Page-2">
    <mxGraphModel dx="1102" dy="582" grid="1" gridSize="10" guides="1" tooltips="1" connect="1" arrows="1" fold="1" page="1" pageScale="1" pageWidth="827" pageHeight="1169" math="0" shadow="0">
      <root>
        <mxCell id="uxEuuEFXV63P-5hz8gUW-0" />
        <mxCell id="uxEuuEFXV63P-5hz8gUW-1" parent="uxEuuEFXV63P-5hz8gUW-0" />
        <mxCell id="uxEuuEFXV63P-5hz8gUW-15" value="车位组（CarGroup）&lt;br&gt;没有车位实体概念，车位组有车位数" style="ellipse;whiteSpace=wrap;html=1;dashed=1;" parent="uxEuuEFXV63P-5hz8gUW-1" vertex="1">
          <mxGeometry x="300" y="520" width="300" height="200" as="geometry" />
        </mxCell>
        <mxCell id="uxEuuEFXV63P-5hz8gUW-7" value="&amp;nbsp; &amp;nbsp; &amp;nbsp; &amp;nbsp; &amp;nbsp; &amp;nbsp; &amp;nbsp; &amp;nbsp; &amp;nbsp; &amp;nbsp; &amp;nbsp; &amp;nbsp; &amp;nbsp; &amp;nbsp; &amp;nbsp; &amp;nbsp; &amp;nbsp; &amp;nbsp; &amp;nbsp; &amp;nbsp;A区&lt;br&gt;&amp;nbsp; &amp;nbsp; &amp;nbsp; &amp;nbsp; &amp;nbsp; &amp;nbsp; &amp;nbsp; &amp;nbsp; &amp;nbsp; &amp;nbsp; &amp;nbsp; &amp;nbsp; &amp;nbsp; &amp;nbsp; &amp;nbsp; &amp;nbsp; &amp;nbsp; &amp;nbsp; &amp;nbsp; &amp;nbsp; &amp;nbsp;（Zone A）" style="rounded=0;whiteSpace=wrap;html=1;dashed=1;" parent="uxEuuEFXV63P-5hz8gUW-1" vertex="1">
          <mxGeometry x="40" y="90" width="210" height="350" as="geometry" />
        </mxCell>
        <mxCell id="uxEuuEFXV63P-5hz8gUW-2" value="车位1" style="rounded=1;whiteSpace=wrap;html=1;" parent="uxEuuEFXV63P-5hz8gUW-1" vertex="1">
          <mxGeometry x="60" y="120" width="120" height="60" as="geometry" />
        </mxCell>
        <mxCell id="uxEuuEFXV63P-5hz8gUW-3" value="&lt;span&gt;车位2&lt;/span&gt;" style="rounded=1;whiteSpace=wrap;html=1;" parent="uxEuuEFXV63P-5hz8gUW-1" vertex="1">
          <mxGeometry x="60" y="200" width="120" height="60" as="geometry" />
        </mxCell>
        <mxCell id="uxEuuEFXV63P-5hz8gUW-4" value="&lt;span&gt;车位3&lt;/span&gt;" style="rounded=1;whiteSpace=wrap;html=1;" parent="uxEuuEFXV63P-5hz8gUW-1" vertex="1">
          <mxGeometry x="60" y="280" width="120" height="60" as="geometry" />
        </mxCell>
        <mxCell id="uxEuuEFXV63P-5hz8gUW-5" value="&lt;span&gt;车位4&lt;/span&gt;" style="rounded=1;whiteSpace=wrap;html=1;" parent="uxEuuEFXV63P-5hz8gUW-1" vertex="1">
          <mxGeometry x="60" y="360" width="120" height="60" as="geometry" />
        </mxCell>
        <mxCell id="uxEuuEFXV63P-5hz8gUW-6" value="智慧社区车场" style="text;html=1;strokeColor=none;fillColor=none;align=center;verticalAlign=middle;whiteSpace=wrap;rounded=0;" parent="uxEuuEFXV63P-5hz8gUW-1" vertex="1">
          <mxGeometry x="200" y="60" width="140" height="20" as="geometry" />
        </mxCell>
        <mxCell id="uxEuuEFXV63P-5hz8gUW-8" value="&amp;nbsp; &amp;nbsp; &amp;nbsp; &amp;nbsp; &amp;nbsp; &amp;nbsp; &amp;nbsp; &amp;nbsp; &amp;nbsp; &amp;nbsp; &amp;nbsp; &amp;nbsp; &amp;nbsp; &amp;nbsp; &amp;nbsp; &amp;nbsp; &amp;nbsp; &amp;nbsp; &amp;nbsp;B区&lt;br&gt;&amp;nbsp; &amp;nbsp; &amp;nbsp; &amp;nbsp; &amp;nbsp; &amp;nbsp; &amp;nbsp; &amp;nbsp; &amp;nbsp; &amp;nbsp; &amp;nbsp; &amp;nbsp; &amp;nbsp; &amp;nbsp; &amp;nbsp; &amp;nbsp; &amp;nbsp; &amp;nbsp; &amp;nbsp; &amp;nbsp; &amp;nbsp; &amp;nbsp;（Zone B）" style="rounded=0;whiteSpace=wrap;html=1;dashed=1;" parent="uxEuuEFXV63P-5hz8gUW-1" vertex="1">
          <mxGeometry x="290" y="90" width="210" height="350" as="geometry" />
        </mxCell>
        <mxCell id="uxEuuEFXV63P-5hz8gUW-9" value="车位1" style="rounded=1;whiteSpace=wrap;html=1;" parent="uxEuuEFXV63P-5hz8gUW-1" vertex="1">
          <mxGeometry x="310" y="120" width="120" height="60" as="geometry" />
        </mxCell>
        <mxCell id="uxEuuEFXV63P-5hz8gUW-10" value="&lt;span&gt;车位2&lt;/span&gt;" style="rounded=1;whiteSpace=wrap;html=1;" parent="uxEuuEFXV63P-5hz8gUW-1" vertex="1">
          <mxGeometry x="310" y="200" width="120" height="60" as="geometry" />
        </mxCell>
        <mxCell id="uxEuuEFXV63P-5hz8gUW-11" value="&lt;span&gt;车位3&lt;/span&gt;" style="rounded=1;whiteSpace=wrap;html=1;" parent="uxEuuEFXV63P-5hz8gUW-1" vertex="1">
          <mxGeometry x="310" y="280" width="120" height="60" as="geometry" />
        </mxCell>
        <mxCell id="uxEuuEFXV63P-5hz8gUW-12" value="&lt;span&gt;车位4&lt;/span&gt;" style="rounded=1;whiteSpace=wrap;html=1;" parent="uxEuuEFXV63P-5hz8gUW-1" vertex="1">
          <mxGeometry x="310" y="360" width="120" height="60" as="geometry" />
        </mxCell>
        <mxCell id="uxEuuEFXV63P-5hz8gUW-13" value="车位" style="rounded=1;whiteSpace=wrap;html=1;" parent="uxEuuEFXV63P-5hz8gUW-1" vertex="1">
          <mxGeometry x="50" y="590" width="120" height="60" as="geometry" />
        </mxCell>
        <mxCell id="uxEuuEFXV63P-5hz8gUW-17" value="" style="endArrow=classic;startArrow=classic;html=1;exitX=1;exitY=0.5;exitDx=0;exitDy=0;entryX=0;entryY=0.5;entryDx=0;entryDy=0;" parent="uxEuuEFXV63P-5hz8gUW-1" source="uxEuuEFXV63P-5hz8gUW-13" target="uxEuuEFXV63P-5hz8gUW-15" edge="1">
          <mxGeometry width="50" height="50" relative="1" as="geometry">
            <mxPoint x="230" y="680" as="sourcePoint" />
            <mxPoint x="280" y="630" as="targetPoint" />
          </mxGeometry>
        </mxCell>
        <mxCell id="uxEuuEFXV63P-5hz8gUW-18" value="智慧社区车场" style="text;html=1;strokeColor=none;fillColor=none;align=center;verticalAlign=middle;whiteSpace=wrap;rounded=0;" parent="uxEuuEFXV63P-5hz8gUW-1" vertex="1">
          <mxGeometry x="40" y="490" width="140" height="20" as="geometry" />
        </mxCell>
        <mxCell id="uxEuuEFXV63P-5hz8gUW-19" value="腾达云车场" style="text;html=1;strokeColor=none;fillColor=none;align=center;verticalAlign=middle;whiteSpace=wrap;rounded=0;" parent="uxEuuEFXV63P-5hz8gUW-1" vertex="1">
          <mxGeometry x="344" y="490" width="140" height="20" as="geometry" />
        </mxCell>
        <mxCell id="k2TwwKrKbdmJD3O5AtQX-0" value="ParkingSpot" style="text;html=1;strokeColor=none;fillColor=none;align=center;verticalAlign=middle;whiteSpace=wrap;rounded=0;dashed=1;" parent="uxEuuEFXV63P-5hz8gUW-1" vertex="1">
          <mxGeometry x="80" y="670" width="40" height="20" as="geometry" />
        </mxCell>
        <mxCell id="k2TwwKrKbdmJD3O5AtQX-2" value="ParkingLot" style="text;html=1;strokeColor=none;fillColor=none;align=center;verticalAlign=middle;whiteSpace=wrap;rounded=0;dashed=1;" parent="uxEuuEFXV63P-5hz8gUW-1" vertex="1">
          <mxGeometry x="340" y="60" width="40" height="20" as="geometry" />
        </mxCell>
        <mxCell id="k2TwwKrKbdmJD3O5AtQX-3" value="一个车可以在多个车位组吗？" style="text;html=1;strokeColor=none;fillColor=none;align=center;verticalAlign=middle;whiteSpace=wrap;rounded=0;dashed=1;" parent="uxEuuEFXV63P-5hz8gUW-1" vertex="1">
          <mxGeometry x="330" y="750" width="260" height="20" as="geometry" />
        </mxCell>
      </root>
    </mxGraphModel>
  </diagram>
  <diagram id="xchnVqMDRk4v1PkTYvxS" name="全视通部署图">
    <mxGraphModel dx="1102" dy="581" grid="1" gridSize="10" guides="1" tooltips="1" connect="1" arrows="1" fold="1" page="1" pageScale="1" pageWidth="827" pageHeight="1169" math="0" shadow="0">
      <root>
        <mxCell id="BXO9RpuIzKvfZIl27aF6-0" />
        <mxCell id="BXO9RpuIzKvfZIl27aF6-1" parent="BXO9RpuIzKvfZIl27aF6-0" />
        <mxCell id="BXO9RpuIzKvfZIl27aF6-3" value="" style="aspect=fixed;html=1;points=[];align=center;image;fontSize=12;image=img/lib/azure2/compute/Virtual_Machine.svg;" parent="BXO9RpuIzKvfZIl27aF6-1" vertex="1">
          <mxGeometry x="510" y="460" width="69" height="64" as="geometry" />
        </mxCell>
        <mxCell id="BXO9RpuIzKvfZIl27aF6-4" value="" style="aspect=fixed;html=1;points=[];align=center;image;fontSize=12;image=img/lib/azure2/compute/Virtual_Machines_Classic.svg;" parent="BXO9RpuIzKvfZIl27aF6-1" vertex="1">
          <mxGeometry x="510" y="300" width="69" height="64" as="geometry" />
        </mxCell>
        <mxCell id="BXO9RpuIzKvfZIl27aF6-5" value="" style="aspect=fixed;html=1;points=[];align=center;image;fontSize=12;image=img/lib/azure2/compute/Virtual_Machines_Classic.svg;" parent="BXO9RpuIzKvfZIl27aF6-1" vertex="1">
          <mxGeometry x="510" y="150" width="69" height="64" as="geometry" />
        </mxCell>
        <mxCell id="BXO9RpuIzKvfZIl27aF6-6" value="" style="outlineConnect=0;fontColor=#232F3E;gradientColor=#945DF2;gradientDirection=north;fillColor=#5A30B5;strokeColor=#ffffff;dashed=0;verticalLabelPosition=bottom;verticalAlign=top;align=center;html=1;fontSize=12;fontStyle=0;aspect=fixed;shape=mxgraph.aws4.resourceIcon;resIcon=mxgraph.aws4.elastic_load_balancing;" parent="BXO9RpuIzKvfZIl27aF6-1" vertex="1">
          <mxGeometry x="310" y="286" width="78" height="78" as="geometry" />
        </mxCell>
        <mxCell id="BXO9RpuIzKvfZIl27aF6-7" value="门禁设备" style="points=[[0.015,0.015,0],[0.985,0.015,0],[0.985,0.985,0],[0.015,0.985,0],[0.25,0,0],[0.5,0,0],[0.75,0,0],[1,0.25,0],[1,0.5,0],[1,0.75,0],[0.75,1,0],[0.5,1,0],[0.25,1,0],[0,0.75,0],[0,0.5,0],[0,0.25,0]];verticalLabelPosition=bottom;html=1;verticalAlign=top;aspect=fixed;align=center;pointerEvents=1;shape=mxgraph.cisco19.cell_phone;fillColor=#005073;strokeColor=none;" parent="BXO9RpuIzKvfZIl27aF6-1" vertex="1">
          <mxGeometry x="100" y="174" width="25" height="50" as="geometry" />
        </mxCell>
        <mxCell id="BXO9RpuIzKvfZIl27aF6-8" value="门禁设备" style="points=[[0.015,0.015,0],[0.985,0.015,0],[0.985,0.985,0],[0.015,0.985,0],[0.25,0,0],[0.5,0,0],[0.75,0,0],[1,0.25,0],[1,0.5,0],[1,0.75,0],[0.75,1,0],[0.5,1,0],[0.25,1,0],[0,0.75,0],[0,0.5,0],[0,0.25,0]];verticalLabelPosition=bottom;html=1;verticalAlign=top;aspect=fixed;align=center;pointerEvents=1;shape=mxgraph.cisco19.cell_phone;fillColor=#005073;strokeColor=none;" parent="BXO9RpuIzKvfZIl27aF6-1" vertex="1">
          <mxGeometry x="100" y="300" width="25" height="50" as="geometry" />
        </mxCell>
        <mxCell id="BXO9RpuIzKvfZIl27aF6-9" value="" style="dashed=0;outlineConnect=0;html=1;align=center;labelPosition=center;verticalLabelPosition=bottom;verticalAlign=top;shape=mxgraph.weblogos.chrome" parent="BXO9RpuIzKvfZIl27aF6-1" vertex="1">
          <mxGeometry x="87.1" y="460" width="50.8" height="55.4" as="geometry" />
        </mxCell>
        <mxCell id="BXO9RpuIzKvfZIl27aF6-10" value="&lt;span style=&quot;color: rgb(51 , 51 , 51) ; font-size: 12px ; font-style: normal ; font-weight: 400 ; letter-spacing: normal ; text-indent: 0px ; text-transform: none ; word-spacing: 0px ; background-color: rgb(255 , 255 , 255) ; display: inline ; float: none&quot;&gt;平台服务器1&lt;br&gt;172.17.147.191&lt;/span&gt;" style="text;whiteSpace=wrap;html=1;" parent="BXO9RpuIzKvfZIl27aF6-1" vertex="1">
          <mxGeometry x="500" y="215" width="110" height="26" as="geometry" />
        </mxCell>
        <mxCell id="BXO9RpuIzKvfZIl27aF6-11" value="&lt;span style=&quot;color: rgb(51 , 51 , 51) ; font-size: 12px ; font-style: normal ; font-weight: 400 ; letter-spacing: normal ; text-indent: 0px ; text-transform: none ; word-spacing: 0px ; background-color: rgb(255 , 255 , 255) ; display: inline ; float: none&quot;&gt;平台服务器2&lt;br&gt;172.17.147.190&lt;/span&gt;" style="text;whiteSpace=wrap;html=1;" parent="BXO9RpuIzKvfZIl27aF6-1" vertex="1">
          <mxGeometry x="500" y="366" width="110" height="30" as="geometry" />
        </mxCell>
        <mxCell id="BXO9RpuIzKvfZIl27aF6-12" value="&lt;span style=&quot;color: rgb(51, 51, 51); font-size: 12px; font-style: normal; font-weight: 400; letter-spacing: normal; text-indent: 0px; text-transform: none; word-spacing: 0px; background-color: rgb(255, 255, 255); display: inline; float: none;&quot;&gt;172.17.147.189&lt;/span&gt;" style="text;whiteSpace=wrap;html=1;" parent="BXO9RpuIzKvfZIl27aF6-1" vertex="1">
          <mxGeometry x="700" y="364" width="110" height="30" as="geometry" />
        </mxCell>
        <mxCell id="BXO9RpuIzKvfZIl27aF6-14" value="" style="aspect=fixed;html=1;points=[];align=center;image;fontSize=12;image=img/lib/azure2/compute/Virtual_Machine.svg;" parent="BXO9RpuIzKvfZIl27aF6-1" vertex="1">
          <mxGeometry x="720" y="150" width="69" height="64" as="geometry" />
        </mxCell>
        <mxCell id="BXO9RpuIzKvfZIl27aF6-15" value="&lt;span style=&quot;color: rgb(51, 51, 51); font-size: 12px; font-style: normal; font-weight: 400; letter-spacing: normal; text-indent: 0px; text-transform: none; word-spacing: 0px; background-color: rgb(255, 255, 255); display: inline; float: none;&quot;&gt;172.17.147.190&lt;/span&gt;" style="text;whiteSpace=wrap;html=1;" parent="BXO9RpuIzKvfZIl27aF6-1" vertex="1">
          <mxGeometry x="710" y="215" width="110" height="30" as="geometry" />
        </mxCell>
        <mxCell id="BXO9RpuIzKvfZIl27aF6-16" value="&lt;span style=&quot;color: rgb(51 , 51 , 51) ; font-size: 12px ; font-style: normal ; font-weight: 400 ; letter-spacing: normal ; text-indent: 0px ; text-transform: none ; word-spacing: 0px ; background-color: rgb(255 , 255 , 255) ; display: inline ; float: none&quot;&gt;平台服务器（旧）&lt;br&gt;172.17.147.190&lt;/span&gt;" style="text;whiteSpace=wrap;html=1;" parent="BXO9RpuIzKvfZIl27aF6-1" vertex="1">
          <mxGeometry x="500" y="530" width="110" height="30" as="geometry" />
        </mxCell>
        <mxCell id="BXO9RpuIzKvfZIl27aF6-17" value="" style="aspect=fixed;pointerEvents=1;shadow=0;dashed=0;html=1;strokeColor=none;labelPosition=center;verticalLabelPosition=bottom;verticalAlign=top;align=center;fillColor=#00188D;shape=mxgraph.azure.virtual_machine_feature" parent="BXO9RpuIzKvfZIl27aF6-1" vertex="1">
          <mxGeometry x="720" y="460" width="50" height="45" as="geometry" />
        </mxCell>
        <mxCell id="BXO9RpuIzKvfZIl27aF6-18" value="" style="aspect=fixed;html=1;points=[];align=center;image;fontSize=12;image=img/lib/azure2/databases/Azure_SQL_VM.svg;" parent="BXO9RpuIzKvfZIl27aF6-1" vertex="1">
          <mxGeometry x="720" y="295" width="64" height="60" as="geometry" />
        </mxCell>
      </root>
    </mxGraphModel>
  </diagram>
  <diagram id="vWGn06ritTyAD9VAOnV8" name="幸福家社区">
    <mxGraphModel dx="1102" dy="511" grid="1" gridSize="10" guides="1" tooltips="1" connect="1" arrows="1" fold="1" page="1" pageScale="1" pageWidth="827" pageHeight="1169" math="0" shadow="0">
      <root>
        <mxCell id="_IiLj6P3gZBxG0qddqAy-0" />
        <mxCell id="_IiLj6P3gZBxG0qddqAy-1" parent="_IiLj6P3gZBxG0qddqAy-0" />
        <mxCell id="_IiLj6P3gZBxG0qddqAy-2" value="" style="aspect=fixed;html=1;points=[];align=center;image;fontSize=14;image=img/lib/azure2/compute/Virtual_Machine.svg;" vertex="1" parent="_IiLj6P3gZBxG0qddqAy-1">
          <mxGeometry x="510" y="460" width="69" height="64" as="geometry" />
        </mxCell>
        <mxCell id="_IiLj6P3gZBxG0qddqAy-3" value="" style="aspect=fixed;html=1;points=[];align=center;image;fontSize=14;image=img/lib/azure2/compute/Virtual_Machines_Classic.svg;" vertex="1" parent="_IiLj6P3gZBxG0qddqAy-1">
          <mxGeometry x="510" y="300" width="69" height="64" as="geometry" />
        </mxCell>
        <mxCell id="_IiLj6P3gZBxG0qddqAy-4" value="" style="aspect=fixed;html=1;points=[];align=center;image;fontSize=14;image=img/lib/azure2/compute/Virtual_Machines_Classic.svg;" vertex="1" parent="_IiLj6P3gZBxG0qddqAy-1">
          <mxGeometry x="510" y="150" width="69" height="64" as="geometry" />
        </mxCell>
        <mxCell id="_IiLj6P3gZBxG0qddqAy-5" value="" style="outlineConnect=0;fontColor=#232F3E;gradientColor=#945DF2;gradientDirection=north;fillColor=#5A30B5;strokeColor=#ffffff;dashed=0;verticalLabelPosition=bottom;verticalAlign=top;align=center;html=1;fontSize=14;fontStyle=0;aspect=fixed;shape=mxgraph.aws4.resourceIcon;resIcon=mxgraph.aws4.elastic_load_balancing;" vertex="1" parent="_IiLj6P3gZBxG0qddqAy-1">
          <mxGeometry x="250" y="277" width="93" height="93" as="geometry" />
        </mxCell>
        <mxCell id="_IiLj6P3gZBxG0qddqAy-8" value="" style="dashed=0;outlineConnect=0;html=1;align=center;labelPosition=center;verticalLabelPosition=bottom;verticalAlign=top;shape=mxgraph.weblogos.chrome;fontSize=14;" vertex="1" parent="_IiLj6P3gZBxG0qddqAy-1">
          <mxGeometry x="81.69999999999999" y="396" width="50.8" height="55.4" as="geometry" />
        </mxCell>
        <mxCell id="_IiLj6P3gZBxG0qddqAy-9" value="&lt;span style=&quot;color: rgb(51 , 51 , 51) ; font-size: 14px ; font-style: normal ; font-weight: 400 ; letter-spacing: normal ; text-indent: 0px ; text-transform: none ; word-spacing: 0px ; background-color: rgb(255 , 255 , 255) ; display: inline ; float: none&quot;&gt;应用服务器1&lt;br style=&quot;font-size: 14px&quot;&gt;172.17.147.179&lt;/span&gt;" style="text;whiteSpace=wrap;html=1;fontSize=14;" vertex="1" parent="_IiLj6P3gZBxG0qddqAy-1">
          <mxGeometry x="500" y="215" width="110" height="26" as="geometry" />
        </mxCell>
        <mxCell id="_IiLj6P3gZBxG0qddqAy-10" value="&lt;span style=&quot;color: rgb(51 , 51 , 51) ; font-size: 14px ; font-style: normal ; font-weight: 400 ; letter-spacing: normal ; text-indent: 0px ; text-transform: none ; word-spacing: 0px ; background-color: rgb(255 , 255 , 255) ; display: inline ; float: none&quot;&gt;应用服务器2&lt;br style=&quot;font-size: 14px&quot;&gt;172.17.10.165&lt;/span&gt;" style="text;whiteSpace=wrap;html=1;fontSize=14;" vertex="1" parent="_IiLj6P3gZBxG0qddqAy-1">
          <mxGeometry x="500" y="366" width="110" height="34" as="geometry" />
        </mxCell>
        <mxCell id="_IiLj6P3gZBxG0qddqAy-14" value="&lt;span style=&quot;color: rgb(51 , 51 , 51) ; font-size: 14px ; font-style: normal ; font-weight: 400 ; letter-spacing: normal ; text-indent: 0px ; text-transform: none ; word-spacing: 0px ; background-color: rgb(255 , 255 , 255) ; display: inline ; float: none&quot;&gt;应用服务器3&lt;br style=&quot;font-size: 14px&quot;&gt;172.17.147.192&lt;/span&gt;" style="text;whiteSpace=wrap;html=1;fontSize=14;" vertex="1" parent="_IiLj6P3gZBxG0qddqAy-1">
          <mxGeometry x="500" y="530" width="110" height="30" as="geometry" />
        </mxCell>
        <mxCell id="_IiLj6P3gZBxG0qddqAy-17" value="" style="aspect=fixed;html=1;points=[];align=center;image;fontSize=14;image=img/lib/azure2/databases/Azure_Database_MySQL_Server.svg;" vertex="1" parent="_IiLj6P3gZBxG0qddqAy-1">
          <mxGeometry x="1090" y="340" width="48" height="64" as="geometry" />
        </mxCell>
        <mxCell id="_IiLj6P3gZBxG0qddqAy-18" value="" style="aspect=fixed;html=1;points=[];align=center;image;fontSize=14;image=img/lib/azure2/databases/SQL_Database.svg;" vertex="1" parent="_IiLj6P3gZBxG0qddqAy-1">
          <mxGeometry x="1090" y="530" width="48" height="64" as="geometry" />
        </mxCell>
        <mxCell id="_IiLj6P3gZBxG0qddqAy-19" value="" style="aspect=fixed;html=1;points=[];align=center;image;fontSize=14;image=img/lib/mscae/Cache_Redis_Product.svg;" vertex="1" parent="_IiLj6P3gZBxG0qddqAy-1">
          <mxGeometry x="1086" y="224" width="50" height="42" as="geometry" />
        </mxCell>
        <mxCell id="_IiLj6P3gZBxG0qddqAy-22" value="" style="shape=image;verticalLabelPosition=bottom;labelBackgroundColor=#ffffff;verticalAlign=top;aspect=fixed;imageAspect=0;image=data:image/png,iVBORw0KGgoAAAANSUhEUgAAAEwAAABxCAYAAAB/c0VYAAAS20lEQVR4Ae3dBawkRdcG4MXd3SG4u7u7Q4AAi7tDSIBACJAQgru7u0Nwd3d3d3erP08l9afprZ7unr27ey/frWTSMz091VVvHXnPqdP3Dgj9rRUCA1pd3X9x6AespRD0A9YPWEsEWl7eL2H9gLVEoOXl/RLWD1hLBFpePkQk7K+//grffPNNePPNN8NLL70UXnzxxfDGG2+EL774IviuL7ceA+znn38O7777brjiiivCrrvuGlZbbbWw1FJLhcUWWyy+llxyybDyyiuHbbbZJpx//vnh9ddfD7/++mv4559/+hR+gwWYyf7xxx/hvffei0BttNFGYbrppgtjjjlmGH744cOAAQP+9RpuuOHCaKONFqaeeuqw+uqrhwsuuCBKIbD7SusaMGD9/vvv4e233w477rhjmHzyyf8FThms8meAjj322GGzzTYLTz/9dJS2vgBa14BRp+effz4sv/zyceIjjDBCK8AACLRRRx01qu5tt93WJ9SzK8D+/PPP8Nxzz0W1GmussbLqV5aoTp/1scwyy4QHHnig10taV4B9+OGHYd999w2jjz56R7DYrBFHHDG+cjatCOK4444bNt544/DBBx9Eu9hb1bM1YGjBOeecE6addtpKFRx55JGjmk466aRhjjnmiK8pppgijDPOOMF3OfCAy1mcfPLJkZL8JwAD1meffRbWXHPNKDVFCUnv2bKFF144HHXUUdEhfPvtt+G7774L77zzTjjttNPC4osvHqhgur54HGmkkcKiiy4annzyyd6KV7t82G+//RZuvvnmMPPMM2cnzICvt9564b777gtffvllYOsSz0I/kNlnn302esbxxhtvkD5IGdVEN3jg3thaqeSPP/4Y9t9//zDhhBMOMllgzTXXXOGJJ54IP/30U+VcAYhGILEAKkqY987tvvvuEfDKTobhF60Ao1orrLBCNPblibJX1BCodQ0lueaaa8IYY4yRtWcrrrhieO211+q6GSbftwKMSmHyOc5Fuh588MFAbesaKUNL2LpRRhllECmbb7754vd1/QyL71sB9tVXX4WJJpooq0pLLLFENPLsVpMmMOc8hEplaeVZqW1vbD0GGO/31ltvRUPfZKJ1gPVWT9kKsH6VDO1oRSejP9lkk4Wjjz66kdFHGZLRz3lKjuU/YfTraMXss88eA/JffvmlUiuTwQdKFePfbbfduqIV+nbvTz75JLzyyivRDrKFEphSUMY/uAnMVirJA950000dieuGG24Y7r///vD111+Hv//++/+BM9AffvghTmLLLbcME0wwwSDGPhHX8847rxVx1a800w033BClfNttt40ZkBSWLbTQQsG4DjnkkHDRRRdFD2x8AG7bWgFm0h9//HFYY401YkxY9m4mLLxZZJFFwumnnx4nIZTyMqHLL788hj5iyvJvfU6/bWLwTZZHZlelhtZZZ50gXhXs5/p2Li2ITLDxkUScsLiwdQC2AkxnOj/jjDPCVFNNVTkwg8b8xx9//LDAAguE+eefPyC2zvkuZ7dMCJFtGnwD66OPPgp77rlnBArYORUvg+fexiAEk0Z/9NFHoxrXAZW+bw2YH0rv7L333hGAqskbqAkgpjIUObJbnAypW3fddRuld5gGdmn99dePYRqwin01eW88FsiCXnvttY2clbl3BZhAWhCNeFbl75sMOl0je7H00ks3SiBSRWANHDiwMrRK/TY5Wkwc8o477ogOoc6udQUYpHkjA2cPiHedBOUGTwKtspTO3XffXWuETQa12WuvvWJuLdenc6TeeEi3Vycz4HrRhnk0SV52DZjBkzTsfvvtt89mMKomlCYlY2uniZFvElK5n/QS79fJFABICMc72uazS5WLWdP49DXxxBOHgw8+OHr3ZK9yx64B0xnQkFArc91118UcPwLLuFdNyMq7Ztlll40uHuBNttncC31g5+w2pckWj4Cac845w7HHHhvTTLjYq6++Gp555plIOVZdddX429zYACrPVxfeDRZgxRVACu1un3322WGrrbaKK1acjPcGRRpPPfXUSCwB0NSlc/+PP/549Ig5b8iWLrfccuHWW2+NpBfAxSZH98ILLwQcbZJJJhkEcCAa3ymnnBJkiatajwFWvIGBzTvvvIMMimR8+umnxUsbv0c0jzzyyJDL1JLaWWedNdx+++0dpdXiSJUzA4x9eUH1s/baa8drqgbWZwB7//33Y2qbJJUnaiF22mmnRl4OaBdffHGWR5JcKm27r6r1GcCkg5QXcBRlwGaYYYZw1113Vc1xkPM0YMEFFxykH2ppB199SFXrM4DJXthlzyUcZW5lcJs2RTNKFMrAA0x0olimqvUYYIysWJPxF27IXJQHRJ14LvbIdahE2ThXDTQBxgOX+xW7tgGMeqsiKvczVAEDlhT2JZdcEuO7nCcSwjCqBxxwQNxKE2L5XZPGA6MFOQmbZZZZwp133tmkm3gNwi2lngPMuC+77LLKvgZLwkiHuE7R3KGHHhrmmWeeaEwx/5wXsoKkTGpnyimnDHPPPXc01nJWGHynRio23XTT+PvyRMWhO+ywQyOJZfQBkqs2YvTTZk7VWLoGDC9CWHEqJBRTBkh5Mp0+GyCbwQYdc8wxkWSWd50sik1hlEFRXo6xJ1pByjqRYGAp5BO051Q70Qo2rqp1BZg40o3VhZEWN+oETJPv9LPBBhvE1LRJU1Vkk9oef/zxkdd1iglJrphUUoCNBDywvYRUSDIpNeacubDYFkOa3e+rWleAPfXUU5H8AaqtVFWBpx9qTNrsb2LbV199dZReYOTYfbkv45lxxhmjeUAdAMWxAP3cc8+NGRG0JDdmiyHmlOgEclVrBZgB8HKym1VZ0/Ik2nw2ERNiR6ifJKXPTcByH78nJUoZAMdGeokC2KxOfQnWDzvssNrKocaAWSlV0Bh1rraiCAxPRux5LxJj61/WwGfGXkont8qpD5JixdPnIX2Uj7MpQxjqimAaA8aL2ZxgpHOTdY5KAUpaRWnTQw89FG2KgVARqnbppZfGIDmlrHN9dQLIPYyBkwF8U+mr6pPxV5pgrE1aY8DkrKRzc3TBYJwn+kDl1XikZHSLR+eRVvuSnfrLTRA4CvnkrWRIq3hZ7re5c/pDsO2EGVeT1ggw0nXCCSdEG5CTiJSxxPAZ67pkIA/Ia7388sthpZVWihnb3ITSOYSXKu+8884xy2tBjIn732+//cI000zTStLMgZRKsZP877//vglW8ZpGgKWJpQkUj27OnctDJVfe9O6ciByXPFaOF7kPe0aSFNnZJfKb1EiFbT97jfY6BeEyFzn7R5rcgydcZZVVwhFHHBEXDJ9s0xoBduGFF8YbFYHy3iCwegOmZt00k7ZfaSLl/n02eeS408RI7Oeffx7uueeemKCcbbbZIngATC/ZVMBff/31kTqUCXLTsTcCjCrkYjgu3CAY9cFppMQ9coA5t8suu0QPXXePZCstQtUrXVPXV9X3tYCxFWuttVbWRiCUJ554YkdmXHXj4nmrbXODyuRspEWRD+sNrRYwKV2xYnn1TUy6WCjSrXgXARCA2w3Kbcrypp466Q2tFjCZiFwqhP3inXisnmhiU5KUU31ACsd6Q6sFrCp3RBLwLjmwnmhUTq5M+FKWZlypzwDWL2H/FodaCauzYVLD/TasACrmjhGzWWVV4SVPOumkHvOS7FfuPn3KS8IOR8oxcTzM1tfg8jCFbR57Li9I+oyHIaZ1LXGsKg7mvGsGp9WqpM6FJbkCOtKAWtgY7fS4TKcBmsSVV14ZPW4CqHh0D1yvU/+YvtSTZ5wAb9cds08sX26Mp5XHu/HGG+POdrdmpBFgYkn5ouJE0nt8TH2VnLtcUpsVFBfKgug7RyfcQ/9qx1QmKhQpThTYpFPKaOuttw4zzTRTDNV48DIBFpPywKiQykOpaIUqnUKu3EI3AowdO+644+KkygMxKQPxRO1jjz0WswhNsxVUmUqLR9MC5I4mK8+msBe9UDOrtlW24sADD6x8nCfXl3Ok1h6CSiC0SeakaWsEmM5IgkRbjokbBHtG7AXiuFmyF8mupKPzAnXlUTZg/a5qYuXzJgq4PfbYI1x11VXRGeV4W/l3VZ/1Jx1+yy239Gw+DGCkTCkTm5WTMudSxpWKnnnmmeGRRx6J+Sa71vjcww8/HOsW5MDUiFV5xaoJOi97QSKlyXsq4yr0MrYmrbGEUTOq0KTa0KoDBEMHnmcjbWr4zHnU5fQB30byOgHc5Ds5fYtoYXsspw99RpqkyF4MyV0jXs4epXQ0rseGNZm4awBN+nhI6uZl86VOou0RHH744T23a1QUV1lSEzKRnHo2nVzxuqTSypDQA4ZY3p5hpoLsTfH63HvjmX766WPOX/bDhjMvKFo566yzYhKBGciNmarzoK7t5Okbq2QRMAPhkrfbbruYG28jAbmJOpe8FgqDc+FW7qNiEW2QBkeeq4Cj5pwIoOxcAyo5Gpohb+95IyWbpKk8DiCSTiULPb7zDTwDMgD8CE+qevC0PLDiZ5PnREiVckxgFXlWWiQOx/NLVbl/C0btPEJTR3DZKQ/y5yIX/SC3PV5bkSZiBQEnuXfQQQfFXWa7O+xbbjvOKpIEOzaeC2JfOBEP1gOlU1MXoQiOTSuC7r37kXaS1Emd9I/WKMmqqt6xU27/tKp1pZK5zpIXxcOEJzmxx+GwbH9Vxf6llawjueledfVhIo2mDVnlvcvAW1AbzDZlqlqPAWZl2R2ktFMFIrVjI1zXRCLSwHu6AlEolQOM9A+Vks00MUeboz1ddp4Ay8Wc3dS4br755v9twKSwqXMuFJKN8KxS00YlgZyTMLZtqKhkcbBDQsJSySanUZ4ooy9nxiQ0MfpoSlW6SjzMI1e1HrNhxRsMCcAE9Lb30ZAyYOiA3W61+rhbVeMhEVN/divnxfUjinFNVesxwPAf+SoGU0l3zksihkomBeaIL8NvEk0a+iJ9hI7kyGuq8eItgVuWNOMT1ike5gnLoCfiKuXeieIMFmAGJVhVEukBddtkJlQVfhikEISdkDSkGlazUyFvAtO9hEvuAZzchNEWldwytNJRFoWzsNmspMmz6tQXOOXfW0wJyCH2NJsJoAUmrCoR0y8PotPnRGKVkgtnmvAx9zNxWY/cpNP9ACfYVvXowVHxZc67puv1ZfzId6ewyOJ1LWFUBKdSRiA4JjlpAE2PVAtzt7N+7733DqJGSbrS0SKp9fBgPEmpug8A2CNSIwQytk4Au0b6SahnUTq1rgDTqf1IcZcJ52xK1WRy56kY4IUkFqJTAxqnQjJRjMG9N2kU2LN9TbxsV4ApbBPedLJVgLGqVplHsuI5sNI5EiNl1OS5awE60KR+5L5MOvXT9Gg8KIq0u/L2pnn91oDxalLVckdVg6MCxBwFwPgZYrn4OvUwAcVzNjjqGinHzfzZGU4EaE2kzSIaHzMiyyo13YmKlMfRCjAia1vLTniOxwDQYFRRc888jnyW1Lb3AnMMu+qZ7aQePFxdo5ocBSOttsyYGHr3r1pIYJFkNtP4FPIxAU2pjTG1Aowq1P3RSM/xMOBp5yhN3OQk8WyTDRw4MKZ4yhMzIVKJy9Xl1lO/jtRJ6GQnCrlV7woUrN1Lvo362pKzKe2h+RxXK/ZZ9b4VYIimR/dyDzZQN2wb5+nEq0iGAUsGAigHmm00E2rb9I2gsrE8OLrixd6hPzxsE/rS6b6tAHNDhDMXAFMHWVOg1jWSal9RPznQ/mf+aKSHy3Mp5jKAJAEtYc940bKU/U/80UgZzLqwoggcm8NQ5xg4u0OVemNrpZLsStVmByPr0bmmNqIOsN5SolletFaAdfqjkTYPPODURiWraiv+MyrJ6PtTCFVG355eU6Pvb3YhqjmyybHIMvTG1krCgOFhqBytYIsweqrUhFYow8x5SOe6/aORQwPgVoBhxdIr8kZlz+YzLiYe5C3ZO/aMR9SEMhJzvOMWW2xRSVyFLG2J69AAKt2jFWApNJKIqwpBBLWifwV49h2BlLbp/eMCaZRcAhDgbUKjNIGhfWwFmMEBTWFHp+AbtxIvIrPpueu0I+67nN2iilJFsqVNgu+hDVS6X2vA/FAKZp999qlk6kldgUBqSGMOpHSdI1VUkikDUZfES4MfFseuAGObxIMMd08kEPUhlazMqS6BOCxAKt6zK8B0YGIMuGJgNqkuQViUpvSeBHIUogRP9CYHURxgb3vfNWAmh6Ri7Cpn2KsERJMjFQX0JptsEqt3ertkpYXrGjAdAI294Q39ASC5MM4AISU9ZeCSRHEAnrvmNT3214m3pYH2luNgAVachEnLOXkqxLYbQKiajISX91LC/qAkL4vJSw23yXYW7zes3vcYYMUJcAoePJXE4xxkHryXrkZL+nIbIoD1ZUDqxt4PWB1Cpe/7ASsBUvexH7A6hErf9wNWAqTuYz9gdQiVvu8HrARI3cf/AxPJ/zq620S2AAAAAElFTkSuQmCC;fontSize=14;" vertex="1" parent="_IiLj6P3gZBxG0qddqAy-1">
          <mxGeometry x="1086" y="50" width="56" height="83.26" as="geometry" />
        </mxCell>
        <mxCell id="_IiLj6P3gZBxG0qddqAy-23" value="全视通门禁" style="rounded=1;whiteSpace=wrap;html=1;fontSize=14;" vertex="1" parent="_IiLj6P3gZBxG0qddqAy-1">
          <mxGeometry x="268" y="800" width="120" height="60" as="geometry" />
        </mxCell>
        <mxCell id="_IiLj6P3gZBxG0qddqAy-24" value="腾达车场" style="rounded=1;whiteSpace=wrap;html=1;fontSize=14;" vertex="1" parent="_IiLj6P3gZBxG0qddqAy-1">
          <mxGeometry x="500" y="800" width="120" height="60" as="geometry" />
        </mxCell>
        <mxCell id="_IiLj6P3gZBxG0qddqAy-25" value="真地车场" style="rounded=1;whiteSpace=wrap;html=1;fontSize=14;" vertex="1" parent="_IiLj6P3gZBxG0qddqAy-1">
          <mxGeometry x="730" y="800" width="120" height="60" as="geometry" />
        </mxCell>
        <mxCell id="_IiLj6P3gZBxG0qddqAy-26" value="微信支付" style="rounded=1;whiteSpace=wrap;html=1;fontSize=14;" vertex="1" parent="_IiLj6P3gZBxG0qddqAy-1">
          <mxGeometry x="950" y="800" width="120" height="60" as="geometry" />
        </mxCell>
        <mxCell id="_IiLj6P3gZBxG0qddqAy-27" value="支付宝支付" style="rounded=1;whiteSpace=wrap;html=1;fontSize=14;" vertex="1" parent="_IiLj6P3gZBxG0qddqAy-1">
          <mxGeometry x="1181" y="800" width="120" height="60" as="geometry" />
        </mxCell>
        <mxCell id="_IiLj6P3gZBxG0qddqAy-28" value="短信平台" style="rounded=1;whiteSpace=wrap;html=1;fontSize=14;" vertex="1" parent="_IiLj6P3gZBxG0qddqAy-1">
          <mxGeometry x="1010" y="950" width="120" height="60" as="geometry" />
        </mxCell>
        <mxCell id="_IiLj6P3gZBxG0qddqAy-29" value="" style="html=1;verticalLabelPosition=bottom;align=center;labelBackgroundColor=#ffffff;verticalAlign=top;strokeWidth=2;strokeColor=#0080F0;shadow=0;dashed=0;shape=mxgraph.ios7.icons.smartphone;fontSize=14;" vertex="1" parent="_IiLj6P3gZBxG0qddqAy-1">
          <mxGeometry x="92.5" y="201" width="40" height="65" as="geometry" />
        </mxCell>
        <mxCell id="_IiLj6P3gZBxG0qddqAy-30" value="" style="endArrow=classic;html=1;exitX=1.038;exitY=0.472;exitDx=0;exitDy=0;exitPerimeter=0;fontSize=14;" edge="1" parent="_IiLj6P3gZBxG0qddqAy-1" source="_IiLj6P3gZBxG0qddqAy-29">
          <mxGeometry width="50" height="50" relative="1" as="geometry">
            <mxPoint x="80" y="370" as="sourcePoint" />
            <mxPoint x="250" y="314" as="targetPoint" />
            <Array as="points">
              <mxPoint x="190" y="232" />
              <mxPoint x="190" y="314" />
            </Array>
          </mxGeometry>
        </mxCell>
        <mxCell id="_IiLj6P3gZBxG0qddqAy-31" value="83" style="text;html=1;strokeColor=none;fillColor=none;align=center;verticalAlign=middle;whiteSpace=wrap;rounded=0;fontSize=14;" vertex="1" parent="_IiLj6P3gZBxG0qddqAy-1">
          <mxGeometry x="210" y="290" width="40" height="20" as="geometry" />
        </mxCell>
        <mxCell id="_IiLj6P3gZBxG0qddqAy-32" value="" style="endArrow=classic;html=1;fontSize=14;entryX=1;entryY=0.25;entryDx=0;entryDy=0;" edge="1" parent="_IiLj6P3gZBxG0qddqAy-1" source="_IiLj6P3gZBxG0qddqAy-8">
          <mxGeometry width="50" height="50" relative="1" as="geometry">
            <mxPoint x="160" y="440" as="sourcePoint" />
            <mxPoint x="250" y="340" as="targetPoint" />
            <Array as="points">
              <mxPoint x="190" y="424" />
              <mxPoint x="190" y="340" />
            </Array>
          </mxGeometry>
        </mxCell>
        <mxCell id="_IiLj6P3gZBxG0qddqAy-37" value="" style="points=[];aspect=fixed;html=1;align=center;shadow=0;dashed=0;image;image=img/lib/allied_telesis/computer_and_terminals/Vdeo_Conference_Terminal.svg;fontSize=14;" vertex="1" parent="_IiLj6P3gZBxG0qddqAy-1">
          <mxGeometry x="96.6" y="562" width="31.8" height="45" as="geometry" />
        </mxCell>
        <mxCell id="_IiLj6P3gZBxG0qddqAy-38" value="" style="endArrow=classic;html=1;fontSize=14;exitX=1.045;exitY=0.659;exitDx=0;exitDy=0;exitPerimeter=0;entryX=1.058;entryY=-0.358;entryDx=0;entryDy=0;entryPerimeter=0;" edge="1" parent="_IiLj6P3gZBxG0qddqAy-1" source="_IiLj6P3gZBxG0qddqAy-37" target="_IiLj6P3gZBxG0qddqAy-39">
          <mxGeometry width="50" height="50" relative="1" as="geometry">
            <mxPoint x="160" y="600" as="sourcePoint" />
            <mxPoint x="210" y="550" as="targetPoint" />
            <Array as="points">
              <mxPoint x="200" y="592" />
              <mxPoint x="200" y="360" />
            </Array>
          </mxGeometry>
        </mxCell>
        <mxCell id="_IiLj6P3gZBxG0qddqAy-39" value="2048" style="text;html=1;strokeColor=none;fillColor=none;align=center;verticalAlign=middle;whiteSpace=wrap;rounded=0;fontSize=14;" vertex="1" parent="_IiLj6P3gZBxG0qddqAy-1">
          <mxGeometry x="210" y="368" width="40" height="20" as="geometry" />
        </mxCell>
        <mxCell id="_IiLj6P3gZBxG0qddqAy-42" value="80" style="text;html=1;strokeColor=none;fillColor=none;align=center;verticalAlign=middle;whiteSpace=wrap;rounded=0;fontSize=14;" vertex="1" parent="_IiLj6P3gZBxG0qddqAy-1">
          <mxGeometry x="209" y="324" width="40" height="20" as="geometry" />
        </mxCell>
        <mxCell id="_IiLj6P3gZBxG0qddqAy-44" value="幸福家管理系统" style="text;html=1;strokeColor=none;fillColor=none;align=center;verticalAlign=middle;whiteSpace=wrap;rounded=0;fontSize=14;" vertex="1" parent="_IiLj6P3gZBxG0qddqAy-1">
          <mxGeometry x="70" y="460" width="110" height="20" as="geometry" />
        </mxCell>
        <mxCell id="_IiLj6P3gZBxG0qddqAy-45" value="幸福家APP" style="text;html=1;strokeColor=none;fillColor=none;align=center;verticalAlign=middle;whiteSpace=wrap;rounded=0;fontSize=14;" vertex="1" parent="_IiLj6P3gZBxG0qddqAy-1">
          <mxGeometry x="57.5" y="277" width="110" height="20" as="geometry" />
        </mxCell>
        <mxCell id="_IiLj6P3gZBxG0qddqAy-46" value="梯控通信终端" style="text;html=1;strokeColor=none;fillColor=none;align=center;verticalAlign=middle;whiteSpace=wrap;rounded=0;fontSize=14;" vertex="1" parent="_IiLj6P3gZBxG0qddqAy-1">
          <mxGeometry x="70" y="620" width="110" height="20" as="geometry" />
        </mxCell>
        <mxCell id="_IiLj6P3gZBxG0qddqAy-47" value="&lt;a class=&quot;channel-link&quot; href=&quot;https://ip.console.aliyun.com/#/eip/cn-beijing?queryKey=AllocationId&amp;amp;queryValue=eip-2zewevvvu7jp09orlsbn4&quot; target=&quot;_blank&quot; style=&quot;box-sizing: border-box; background-color: rgb(250, 250, 250); text-decoration: none; color: rgb(0, 112, 204); font-size: 15px; font-style: normal; font-weight: 400; letter-spacing: normal; text-indent: 0px; text-transform: none; word-spacing: 0px; cursor: pointer;&quot;&gt;&lt;span class=&quot;id-text&quot; style=&quot;box-sizing: border-box; word-break: keep-all; display: inline-block; font-size: 15px;&quot;&gt;39.105.47.199&lt;/span&gt;&lt;/a&gt;" style="text;whiteSpace=wrap;html=1;fontSize=15;fontFamily=Helvetica;" vertex="1" parent="_IiLj6P3gZBxG0qddqAy-1">
          <mxGeometry x="260" y="380" width="100" height="30" as="geometry" />
        </mxCell>
        <mxCell id="_IiLj6P3gZBxG0qddqAy-48" value="&lt;span style=&quot;color: rgb(51, 51, 51); font-size: 12px; font-style: normal; font-weight: 400; letter-spacing: normal; text-indent: 0px; text-transform: none; word-spacing: 0px; background-color: rgb(250, 250, 250); display: inline; float: none;&quot;&gt;172.17.147.200&lt;/span&gt;" style="text;whiteSpace=wrap;html=1;fontSize=15;fontFamily=Helvetica;" vertex="1" parent="_IiLj6P3gZBxG0qddqAy-1">
          <mxGeometry x="255" y="245" width="110" height="30" as="geometry" />
        </mxCell>
        <mxCell id="_IiLj6P3gZBxG0qddqAy-49" value="" style="endArrow=classic;html=1;fontFamily=Helvetica;fontSize=15;entryX=0.022;entryY=0.326;entryDx=0;entryDy=0;entryPerimeter=0;" edge="1" parent="_IiLj6P3gZBxG0qddqAy-1" target="_IiLj6P3gZBxG0qddqAy-4">
          <mxGeometry width="50" height="50" relative="1" as="geometry">
            <mxPoint x="343" y="310" as="sourcePoint" />
            <mxPoint x="380" y="370" as="targetPoint" />
            <Array as="points">
              <mxPoint x="450" y="310" />
              <mxPoint x="450" y="171" />
            </Array>
          </mxGeometry>
        </mxCell>
        <mxCell id="_IiLj6P3gZBxG0qddqAy-50" value="" style="endArrow=classic;html=1;fontFamily=Helvetica;fontSize=15;entryX=-0.014;entryY=0.365;entryDx=0;entryDy=0;entryPerimeter=0;" edge="1" parent="_IiLj6P3gZBxG0qddqAy-1" source="_IiLj6P3gZBxG0qddqAy-5" target="_IiLj6P3gZBxG0qddqAy-3">
          <mxGeometry width="50" height="50" relative="1" as="geometry">
            <mxPoint x="390" y="410" as="sourcePoint" />
            <mxPoint x="440" y="360" as="targetPoint" />
          </mxGeometry>
        </mxCell>
        <mxCell id="_IiLj6P3gZBxG0qddqAy-51" value="" style="endArrow=classic;html=1;fontFamily=Helvetica;fontSize=15;exitX=0.968;exitY=0.677;exitDx=0;exitDy=0;exitPerimeter=0;entryX=0.01;entryY=0.417;entryDx=0;entryDy=0;entryPerimeter=0;" edge="1" parent="_IiLj6P3gZBxG0qddqAy-1" source="_IiLj6P3gZBxG0qddqAy-5" target="_IiLj6P3gZBxG0qddqAy-2">
          <mxGeometry width="50" height="50" relative="1" as="geometry">
            <mxPoint x="350" y="530" as="sourcePoint" />
            <mxPoint x="400" y="480" as="targetPoint" />
            <Array as="points">
              <mxPoint x="450" y="340" />
              <mxPoint x="450" y="487" />
            </Array>
          </mxGeometry>
        </mxCell>
        <mxCell id="_IiLj6P3gZBxG0qddqAy-52" value="网关：83&lt;br&gt;管理系统Nginx：80&lt;br&gt;应用服务tomcat：8100" style="text;html=1;strokeColor=none;fillColor=none;align=center;verticalAlign=middle;whiteSpace=wrap;rounded=0;fontFamily=Helvetica;fontSize=15;" vertex="1" parent="_IiLj6P3gZBxG0qddqAy-1">
          <mxGeometry x="620" y="160" width="170" height="20" as="geometry" />
        </mxCell>
      </root>
    </mxGraphModel>
  </diagram>
</mxfile>
